<svg width="24" height="24" viewBox="0 0 24 24" fill="none" xmlns="http://www.w3.org/2000/svg">
<path fill-rule="evenodd" clip-rule="evenodd" d="M12.0004 3.5C10.3144 3.5 8.94769 4.86673 8.94769 6.55268C8.94769 8.23863 10.3144 9.60536 12.0004 9.60536C13.6863 9.60536 15.0531 8.23863 15.0531 6.55268C15.0531 4.86673 13.6863 3.5 12.0004 3.5ZM7.44769 6.55268C7.44769 4.0383 9.486 2 12.0004 2C14.5147 2 16.5531 4.0383 16.5531 6.55268C16.5531 9.06705 14.5147 11.1054 12.0004 11.1054C9.486 11.1054 7.44769 9.06705 7.44769 6.55268ZM8.95113 12.5766C8.99132 12.5766 9.03205 12.5766 9.07334 12.5766H14.9268C14.9681 12.5766 15.0088 12.5766 15.049 12.5766C16.124 12.5764 16.8088 12.5763 17.3923 12.7264C19.0688 13.1576 20.378 14.4668 20.8093 16.1433C20.9594 16.7269 20.9592 17.4116 20.959 18.4867C20.959 18.5269 20.959 18.5676 20.959 18.6089C20.959 18.6406 20.959 18.672 20.959 18.7029C20.9594 19.2066 20.9596 19.5957 20.8723 19.9351C20.6226 20.9057 19.8647 21.6636 18.8941 21.9133C18.5547 22.0006 18.1656 22.0004 17.6619 22C17.631 22 17.5996 22 17.5679 22H6.43222C6.40045 22 6.36913 22 6.33824 22C5.83453 22.0004 5.44543 22.0006 5.10602 21.9133C4.1354 21.6636 3.37746 20.9057 3.12779 19.9351C3.04049 19.5957 3.04073 19.2066 3.04105 18.7028C3.04107 18.672 3.04109 18.6406 3.04109 18.6089C3.04109 18.5676 3.04109 18.5269 3.04108 18.4867C3.04087 17.4116 3.04074 16.7269 3.19084 16.1433C3.62209 14.4668 4.93126 13.1576 6.60779 12.7264C7.19132 12.5763 7.87608 12.5764 8.95113 12.5766ZM9.07334 14.0766C7.83466 14.0766 7.35662 14.0826 6.98146 14.1791C5.83437 14.4742 4.93862 15.3699 4.64355 16.517C4.54705 16.8922 4.54109 17.3702 4.54109 18.6089C4.54109 19.2514 4.54705 19.4314 4.5805 19.5614C4.69399 20.0026 5.03851 20.3471 5.4797 20.4606C5.60973 20.494 5.78969 20.5 6.43222 20.5H17.5679C18.2104 20.5 18.3904 20.494 18.5204 20.4606C18.9616 20.3471 19.3061 20.0026 19.4196 19.5614C19.453 19.4314 19.459 19.2514 19.459 18.6089C19.459 17.3702 19.453 16.8922 19.3565 16.517C19.0615 15.3699 18.1657 14.4742 17.0186 14.1791C16.6435 14.0826 16.1654 14.0766 14.9268 14.0766H9.07334ZM9.75008 17.2883C9.75008 16.8741 10.0859 16.5383 10.5001 16.5383H13.5001C13.9143 16.5383 14.2501 16.8741 14.2501 17.2883C14.2501 17.7025 13.9143 18.0383 13.5001 18.0383H10.5001C10.0859 18.0383 9.75008 17.7025 9.75008 17.2883Z" fill="black"/>
</svg>
