<svg width="69" height="66" viewBox="0 0 69 66" fill="none" xmlns="http://www.w3.org/2000/svg">
<path d="M0 15C0 6.71573 6.71573 0 15 0H54C62.2843 0 69 6.71573 69 15V51C69 59.2843 62.2843 66 54 66H15C6.71573 66 0 59.2843 0 51V15Z" fill="#150F0F"/>
<path d="M35.9287 20.811C37.2565 19.2834 38.9343 18.4488 40.9621 18.307C42.9898 18.1652 44.7675 18.7582 46.295 20.0861C47.8225 21.414 48.6572 23.0918 48.799 25.1195C48.9408 27.1472 48.3588 28.9345 47.0531 30.4813C46.8991 30.6584 46.7423 30.7941 46.5825 30.8885L38.4921 36.5068C37.5789 37.4231 36.4794 37.9054 35.1937 37.9538C33.9079 38.0021 32.778 37.6029 31.804 36.7561C30.852 35.9286 30.3009 34.8859 30.1505 33.6281C30.0002 32.3703 30.2945 31.2269 31.0335 30.198C31.3894 29.3414 31.792 28.4088 32.2413 27.4001C32.6906 26.3915 33.2731 25.2071 33.9889 23.8472C34.7048 22.4872 35.3513 21.4751 35.9287 20.811ZM23.264 39.0687C24.1493 38.0503 25.2651 37.5045 26.6115 37.4311C27.9578 37.3577 29.1498 37.7526 30.1874 38.6157C31.225 39.4788 31.7819 40.6043 31.8582 41.992C31.9344 43.3798 31.5492 44.5607 30.7024 45.5348C29.798 46.5753 28.6725 47.1322 27.3261 47.2055C25.9798 47.2789 24.7878 46.884 23.7502 46.0209C22.7126 45.1578 22.1557 44.0324 22.0794 42.6446C22.0032 41.2569 22.398 40.0649 23.264 39.0687Z" fill="white"/>
</svg>
