<svg xmlns="http://www.w3.org/2000/svg" xmlns:xlink="http://www.w3.org/1999/xlink" version="1.1" x="0px" y="0px" viewBox="0 0 512 640" style="enable-background:new 0 0 512 512;" xml:space="preserve"><path d="M296.48,317.598c-1.14-1.45-3.07-3.32-5.68-3.9c-22.92-5.1-46.68-5.1-69.61,0c-4.86,1.08-8.81,6.92-9.39,13.88  c-2,24.17-3.02,48.74-3.02,73.03c0,6.12,0.06,12.27,0.2,18.41c0.13,6.7,0.35,13.41,0.64,20.09c0.29,6.74,0.66,13.45,1.11,20.12  c15.06,0.95,30.16,1.42,45.27,1.42c15.1,0,30.21-0.479,45.27-1.43c0.45-6.67,0.82-13.38,1.11-20.11c0.29-6.68,0.51-13.39,0.64-20.09  c0.14-6.14,0.2-12.29,0.2-18.41c0-24.29-1.02-48.86-3.02-73.04C299.88,323.788,298.56,320.248,296.48,317.598z"/><path d="M437.17,220.669l-6.1-38.81c-2.89-18.38-13.35-34.96-28.71-45.5l-96.48-66.19c-14.75-10.11-31.99-15.46-49.88-15.46  s-35.13,5.35-49.87,15.46l-96.5,66.2c-15.35,10.53-25.81,27.11-28.7,45.49l-6.1,38.81c-3.91,24.84-5.89,50.21-5.89,75.38  c0,25.18,1.98,50.55,5.89,75.39c6.88,43.7,42.36,77.82,86.29,82.99l9.29,1.09c-0.4-6.72-0.73-13.48-0.98-20.26  c-0.25-6.72-0.43-13.46-0.53-20.2c-0.08-4.82-0.12-9.64-0.12-14.45c0-25.39,1.06-51.08,3.16-76.35  c2.06-24.73,18.36-44.66,40.56-49.6c28.63-6.38,58.37-6.37,87-0.01c11,2.45,21.09,8.92,28.41,18.21  c6.98,8.87,11.18,19.72,12.15,31.39c2.1,25.28,3.16,50.97,3.16,76.36c0,4.81-0.04,9.64-0.12,14.46c-0.1,6.73-0.28,13.47-0.53,20.19  c-0.25,6.78-0.58,13.54-0.98,20.26l9.29-1.09c21.65-2.55,41.4-11.88,57.11-26.99c15.71-15.12,25.8-34.48,29.18-56  C445.03,321.419,445.03,270.688,437.17,220.669z"/><text x="0" y="527" fill="#000000" font-size="5px" font-weight="bold" font-family="'Helvetica Neue', Helvetica, Arial-Unicode, Arial, Sans-serif">Created by Rahmat Sigit Prasetyo</text><text x="0" y="532" fill="#000000" font-size="5px" font-weight="bold" font-family="'Helvetica Neue', Helvetica, Arial-Unicode, Arial, Sans-serif">from the Noun Project</text></svg>