<svg width="24" height="24" viewBox="0 0 24 24" fill="none" xmlns="http://www.w3.org/2000/svg">
<path fill-rule="evenodd" clip-rule="evenodd" d="M11.9999 3.5C7.60135 3.5 4.03564 7.06571 4.03564 11.4642C4.03564 14.667 5.92615 17.4297 8.65536 18.6945C10.5868 19.5896 12.7451 19.9524 14.9786 20.3278C15.2384 20.3715 15.4993 20.4153 15.7609 20.4602C15.8235 20.4709 15.8787 20.4792 15.9267 20.4854C15.977 20.3136 16.0139 20.0804 16.0555 19.7783C16.0597 19.7481 16.0639 19.717 16.0682 19.6853C16.1047 19.4175 16.1476 19.1023 16.2146 18.8281C16.2794 18.563 16.4131 18.111 16.7822 17.8334C17.0824 17.6076 17.3662 17.361 17.6314 17.0958C19.0735 15.6537 19.9641 13.6637 19.9641 11.4642C19.9641 7.06571 16.3984 3.5 11.9999 3.5ZM15.8708 20.6305C15.8708 20.6303 15.8719 20.6282 15.8745 20.6246C15.8722 20.6288 15.8709 20.6306 15.8708 20.6305ZM2.53564 11.4642C2.53564 6.23728 6.77293 2 11.9999 2C17.2268 2 21.4641 6.23728 21.4641 11.4642C21.4641 14.0775 20.404 16.4446 18.6921 18.1565C18.3913 18.4573 18.0702 18.738 17.7312 18.9963C17.721 19.0197 17.6982 19.0757 17.6718 19.1841C17.6246 19.3773 17.5925 19.6111 17.5534 19.8965C17.5495 19.9249 17.5455 19.9538 17.5415 19.9832C17.5007 20.2788 17.449 20.6407 17.353 20.9508C17.2698 21.2194 17.0812 21.7025 16.59 21.9126C16.3692 22.007 16.1341 22.0033 16.0097 21.9979C15.8527 21.9911 15.6796 21.9682 15.5073 21.9386C15.249 21.8943 14.9876 21.8505 14.7239 21.8064C12.5189 21.4374 10.1519 21.0413 8.02466 20.0555C4.78513 18.5542 2.53564 15.2727 2.53564 11.4642ZM12 8.8399C12.4142 8.8399 12.75 9.17569 12.75 9.5899V12.5661C12.75 12.9803 12.4142 13.3161 12 13.3161C11.5858 13.3161 11.25 12.9803 11.25 12.5661V9.5899C11.25 9.17569 11.5858 8.8399 12 8.8399ZM9 9.67324C9.41421 9.67324 9.75 10.009 9.75 10.4232V11.7328C9.75 12.147 9.41421 12.4828 9 12.4828C8.58579 12.4828 8.25 12.147 8.25 11.7328V10.4232C8.25 10.009 8.58579 9.67324 9 9.67324ZM15 9.67324C15.4142 9.67324 15.75 10.009 15.75 10.4232V11.7328C15.75 12.147 15.4142 12.4828 15 12.4828C14.5858 12.4828 14.25 12.147 14.25 11.7328V10.4232C14.25 10.009 14.5858 9.67324 15 9.67324Z" fill="black"/>
</svg>
