<svg width="24" height="24" viewBox="0 0 24 24" fill="none" xmlns="http://www.w3.org/2000/svg">
<path d="M8.53981 13.6151C8.53981 13.3939 8.3605 13.2146 8.13931 13.2146H8.07745C7.85626 13.2146 7.67695 13.3939 7.67695 13.6151C7.67695 13.8363 7.85626 14.0156 8.07745 14.0156H8.13931C8.3605 14.0156 8.53981 13.8363 8.53981 13.6151Z" fill="black"/>
<path d="M15.9389 13.2146C16.1601 13.2146 16.3394 13.3939 16.3394 13.6151C16.3394 13.8363 16.1601 14.0156 15.9389 14.0156H15.877C15.6559 14.0156 15.4765 13.8363 15.4765 13.6151C15.4765 13.3939 15.6559 13.2146 15.877 13.2146H15.9389Z" fill="black"/>
<path fill-rule="evenodd" clip-rule="evenodd" d="M16.749 4.69021C16.1233 4.46402 15.4249 4.46432 14.4135 4.46476L9.70813 4.46476C8.73105 4.46435 8.05611 4.46407 7.44679 4.6774C6.90987 4.86538 6.42222 5.17198 6.02013 5.5744C5.56381 6.03108 5.27156 6.63946 4.84849 7.5202L3.64297 10.0272C3.10312 10.2994 2.65818 10.7449 2.38911 11.3066C2.32501 11.4404 2.27289 11.5876 2.20599 11.7765L2.18894 11.8247C2.1596 11.9074 2.13646 11.9727 2.11655 12.0392C1.98926 12.4645 1.96584 12.9141 2.04824 13.3503C2.06114 13.4186 2.07734 13.4857 2.0979 13.571L2.88387 16.832V18.7784C2.88387 19.1965 3.22277 19.5354 3.64082 19.5354C4.05888 19.5354 4.39778 19.1965 4.39778 18.7784V17.5001H19.6187V18.7784C19.6187 19.1965 19.9576 19.5354 20.3757 19.5354C20.7938 19.5354 21.1327 19.1965 21.1327 18.7784V16.8345L21.8934 13.6781C21.9225 13.5574 21.9454 13.4625 21.9616 13.366C22.0391 12.9047 21.9988 12.4314 21.8444 11.9898C21.8121 11.8975 21.7735 11.8079 21.7244 11.694L21.6992 11.6354C21.6055 11.4175 21.5324 11.2474 21.4422 11.0947C21.1887 10.6653 20.8282 10.3181 20.4036 10.0814L19.349 7.68498C18.942 6.75915 18.661 6.11982 18.2019 5.63821C17.7975 5.21398 17.3002 4.88945 16.749 4.69021ZM14.277 5.97871C15.479 5.97871 15.8901 5.98953 16.2343 6.11396C16.565 6.23351 16.8635 6.42822 17.1061 6.68276C17.3586 6.94771 17.5341 7.31965 18.0183 8.41981L18.5949 9.73009H5.4657L6.15588 8.29484C6.65882 7.24897 6.83994 6.89579 7.09105 6.64447C7.33231 6.40302 7.6249 6.21906 7.94705 6.10627C8.28236 5.98888 8.67915 5.97871 9.83966 5.97871H14.277ZM8.13931 11.7007C9.19661 11.7007 10.0537 12.5578 10.0537 13.6151C10.0537 14.6724 9.19661 15.5295 8.13931 15.5295H8.07745C7.02014 15.5295 6.16303 14.6724 6.16303 13.6151C6.16303 12.5578 7.02014 11.7007 8.07745 11.7007H8.13931ZM17.8533 13.6151C17.8533 12.5578 16.9962 11.7007 15.9389 11.7007H15.877C14.8197 11.7007 13.9626 12.5578 13.9626 13.6151C13.9626 14.6724 14.8197 15.5295 15.877 15.5295H15.9389C16.9962 15.5295 17.8533 14.6724 17.8533 13.6151Z" fill="black"/>
</svg>
