<svg width="24" height="24" viewBox="0 0 24 24" fill="none" xmlns="http://www.w3.org/2000/svg">
<path fill-rule="evenodd" clip-rule="evenodd" d="M16.2366 6.11229C15.8922 5.98782 15.481 5.977 14.2787 5.977H9.84011C8.67928 5.977 8.28238 5.98717 7.94697 6.1046C7.62473 6.21742 7.33206 6.40143 7.09074 6.64295C6.87406 6.85979 6.7006 7.16482 6.30604 7.98085C6.24825 8.10038 6.22885 8.14087 6.21064 8.18315C6.19352 8.22291 6.17661 8.26556 6.16183 8.30624C6.14615 8.34942 6.13196 8.39403 6.0907 8.52527L5.71212 9.72943H18.3367L18.0794 8.698C18.0399 8.53962 18.0262 8.4858 18.0103 8.43361C17.9953 8.38461 17.9775 8.33275 17.9592 8.28489C17.9396 8.2338 17.9184 8.18548 17.8551 8.0426C17.4893 7.21806 17.3213 6.90444 17.1086 6.68125C16.8659 6.42663 16.5674 6.23186 16.2366 6.11229ZM19.9329 9.87204L19.5444 8.31421C19.5108 8.17928 19.4874 8.08566 19.4586 7.99137C19.4335 7.90893 19.4043 7.824 19.3735 7.7435C19.3382 7.65143 19.3004 7.56614 19.246 7.44367L19.2393 7.42853C18.8943 6.65074 18.6302 6.08275 18.2047 5.63641C17.8002 5.21205 17.3027 4.88744 16.7514 4.68814C16.1255 4.46189 15.4269 4.46219 14.4153 4.46262C14.3704 4.46264 14.3248 4.46266 14.2787 4.46266H9.84011C9.79565 4.46266 9.75181 4.46264 9.70855 4.46263C8.73119 4.46222 8.05607 4.46194 7.44658 4.67532C6.9095 4.86336 6.42172 5.17004 6.01951 5.57257C5.58933 6.00309 5.31261 6.55662 4.9427 7.32167C4.94063 7.32596 4.93858 7.33019 4.93656 7.33437C4.88706 7.43673 4.85263 7.50794 4.81979 7.5842C4.79103 7.65099 4.76327 7.721 4.73844 7.78935C4.7101 7.8674 4.68571 7.94498 4.65055 8.05684L4.08739 9.84812C3.34847 10.0714 2.72708 10.596 2.38684 11.3063C2.11886 11.8657 1.902 12.5891 2.04587 13.3506C2.05876 13.4188 2.07497 13.486 2.0955 13.5712L2.09913 13.5862L2.88199 16.8343L2.88204 18.7802C2.88205 19.1984 3.22105 19.5374 3.63922 19.5374C4.0574 19.5374 4.39639 19.1984 4.39638 18.7802L4.39634 17.5015H19.6216V18.7802C19.6216 19.1984 19.9606 19.5374 20.3788 19.5374C20.797 19.5374 21.136 19.1984 21.136 18.7802V16.8343L21.8966 13.6785C21.9257 13.5577 21.9486 13.4628 21.9648 13.3663C22.1075 12.5173 21.7926 11.6827 21.4453 11.0943C21.102 10.5128 20.5622 10.0819 19.9329 9.87204ZM4.7216 11.2551L19.2561 11.26C19.6255 11.3197 19.9502 11.5407 20.1412 11.8642C20.4022 12.3063 20.53 12.7668 20.4714 13.1154C20.4651 13.1529 20.4558 13.1935 20.4194 13.3444L19.7824 15.9872H4.23551L3.57132 13.2314C3.54562 13.1248 3.53891 13.096 3.53389 13.0695C3.47411 12.753 3.55431 12.3744 3.75256 11.9605C3.9365 11.5765 4.30123 11.3119 4.7216 11.2551ZM8.07673 13.2148C7.85548 13.2148 7.67612 13.3942 7.67612 13.6155C7.67612 13.8367 7.85548 14.0161 8.07673 14.0161H8.13861C8.35987 14.0161 8.53923 13.8367 8.53923 13.6155C8.53923 13.3942 8.35987 13.2148 8.13861 13.2148H8.07673ZM6.16178 13.6155C6.16178 12.5579 7.01913 11.7005 8.07673 11.7005H8.13861C9.19621 11.7005 10.0536 12.5579 10.0536 13.6155C10.0536 14.6731 9.19621 15.5304 8.13861 15.5304H8.07673C7.01913 15.5304 6.16178 14.6731 6.16178 13.6155ZM15.8785 13.2148C15.6573 13.2148 15.4779 13.3942 15.4779 13.6155C15.4779 13.8367 15.6573 14.0161 15.8785 14.0161H15.9404C16.1616 14.0161 16.341 13.8367 16.341 13.6155C16.341 13.3942 16.1616 13.2148 15.9404 13.2148H15.8785ZM13.9636 13.6155C13.9636 12.5579 14.8209 11.7005 15.8785 11.7005H15.9404C16.998 11.7005 17.8553 12.5579 17.8553 13.6155C17.8553 14.6731 16.998 15.5304 15.9404 15.5304H15.8785C14.8209 15.5304 13.9636 14.6731 13.9636 13.6155Z" fill="black"/>
</svg>
