<svg width="252" height="66" viewBox="0 0 252 66" fill="none" xmlns="http://www.w3.org/2000/svg">
<path d="M0 15C0 6.71573 6.71573 0 15 0H237C245.284 0 252 6.71573 252 15V51C252 59.2843 245.284 66 237 66H15C6.71573 66 0 59.2843 0 51V15Z" fill="#150F0F"/>
<path d="M28.048 46.432C26.104 46.432 24.292 46.12 22.612 45.496C20.956 44.848 19.516 43.936 18.292 42.76C17.068 41.584 16.108 40.204 15.412 38.62C14.74 37.036 14.404 35.296 14.404 33.4C14.404 31.504 14.74 29.764 15.412 28.18C16.108 26.596 17.068 25.216 18.292 24.04C19.54 22.864 20.992 21.964 22.648 21.34C24.304 20.692 26.116 20.368 28.084 20.368C30.268 20.368 32.236 20.752 33.988 21.52C35.764 22.264 37.252 23.368 38.452 24.832L34.708 28.288C33.844 27.304 32.884 26.572 31.828 26.092C30.772 25.588 29.62 25.336 28.372 25.336C27.196 25.336 26.116 25.528 25.132 25.912C24.148 26.296 23.296 26.848 22.576 27.568C21.856 28.288 21.292 29.14 20.884 30.124C20.5 31.108 20.308 32.2 20.308 33.4C20.308 34.6 20.5 35.692 20.884 36.676C21.292 37.66 21.856 38.512 22.576 39.232C23.296 39.952 24.148 40.504 25.132 40.888C26.116 41.272 27.196 41.464 28.372 41.464C29.62 41.464 30.772 41.224 31.828 40.744C32.884 40.24 33.844 39.484 34.708 38.476L38.452 41.932C37.252 43.396 35.764 44.512 33.988 45.28C32.236 46.048 30.256 46.432 28.048 46.432Z" fill="white"/>
<path d="M53.7663 26.344C55.3023 26.344 56.6703 26.656 57.8703 27.28C59.0943 27.88 60.0543 28.816 60.7503 30.088C61.4463 31.336 61.7943 32.944 61.7943 34.912V46H56.1783V35.776C56.1783 34.216 55.8303 33.064 55.1343 32.32C54.4623 31.576 53.5023 31.204 52.2543 31.204C51.3663 31.204 50.5623 31.396 49.8423 31.78C49.1463 32.14 48.5943 32.704 48.1863 33.472C47.8023 34.24 47.6103 35.224 47.6103 36.424V46H41.9943V19.288H47.6103V31.996L46.3503 30.376C47.0463 29.08 48.0423 28.084 49.3383 27.388C50.6343 26.692 52.1103 26.344 53.7663 26.344Z" fill="white"/>
<path d="M78.765 46V42.22L78.405 41.392V34.624C78.405 33.424 78.033 32.488 77.289 31.816C76.569 31.144 75.453 30.808 73.941 30.808C72.909 30.808 71.889 30.976 70.881 31.312C69.897 31.624 69.057 32.056 68.361 32.608L66.345 28.684C67.401 27.94 68.673 27.364 70.161 26.956C71.649 26.548 73.161 26.344 74.697 26.344C77.649 26.344 79.941 27.04 81.573 28.432C83.205 29.824 84.021 31.996 84.021 34.948V46H78.765ZM72.861 46.288C71.349 46.288 70.053 46.036 68.973 45.532C67.893 45.004 67.065 44.296 66.489 43.408C65.913 42.52 65.625 41.524 65.625 40.42C65.625 39.268 65.901 38.26 66.453 37.396C67.029 36.532 67.929 35.86 69.153 35.38C70.377 34.876 71.973 34.624 73.941 34.624H79.089V37.9H74.553C73.233 37.9 72.321 38.116 71.817 38.548C71.337 38.98 71.097 39.52 71.097 40.168C71.097 40.888 71.373 41.464 71.925 41.896C72.501 42.304 73.281 42.508 74.265 42.508C75.201 42.508 76.041 42.292 76.785 41.86C77.529 41.404 78.069 40.744 78.405 39.88L79.269 42.472C78.861 43.72 78.117 44.668 77.037 45.316C75.957 45.964 74.565 46.288 72.861 46.288Z" fill="white"/>
<path d="M89.1037 46V19.288H94.7197V46H89.1037Z" fill="white"/>
<path d="M109.544 46.288C107.336 46.288 105.392 45.856 103.712 44.992C102.056 44.128 100.772 42.952 99.8598 41.464C98.9478 39.952 98.4918 38.236 98.4918 36.316C98.4918 34.372 98.9358 32.656 99.8238 31.168C100.736 29.656 101.972 28.48 103.532 27.64C105.092 26.776 106.856 26.344 108.824 26.344C110.72 26.344 112.424 26.752 113.936 27.568C115.472 28.36 116.684 29.512 117.572 31.024C118.46 32.512 118.904 34.3 118.904 36.388C118.904 36.604 118.892 36.856 118.868 37.144C118.844 37.408 118.82 37.66 118.796 37.9H103.064V34.624H115.844L113.684 35.596C113.684 34.588 113.48 33.712 113.072 32.968C112.664 32.224 112.1 31.648 111.38 31.24C110.66 30.808 109.82 30.592 108.86 30.592C107.9 30.592 107.048 30.808 106.304 31.24C105.584 31.648 105.02 32.236 104.612 33.004C104.204 33.748 104 34.636 104 35.668V36.532C104 37.588 104.228 38.524 104.684 39.34C105.164 40.132 105.824 40.744 106.664 41.176C107.528 41.584 108.536 41.788 109.688 41.788C110.72 41.788 111.62 41.632 112.388 41.32C113.18 41.008 113.9 40.54 114.548 39.916L117.536 43.156C116.648 44.164 115.532 44.944 114.188 45.496C112.844 46.024 111.296 46.288 109.544 46.288Z" fill="white"/>
<path d="M123.039 46V20.8H133.947C136.203 20.8 138.147 21.172 139.779 21.916C141.411 22.636 142.671 23.68 143.559 25.048C144.447 26.416 144.891 28.048 144.891 29.944C144.891 31.816 144.447 33.436 143.559 34.804C142.671 36.148 141.411 37.18 139.779 37.9C138.147 38.62 136.203 38.98 133.947 38.98H126.279L128.871 36.424V46H123.039ZM139.059 46L132.759 36.856H138.987L145.359 46H139.059ZM128.871 37.072L126.279 34.336H133.623C135.423 34.336 136.767 33.952 137.655 33.184C138.543 32.392 138.987 31.312 138.987 29.944C138.987 28.552 138.543 27.472 137.655 26.704C136.767 25.936 135.423 25.552 133.623 25.552H126.279L128.871 22.78V37.072Z" fill="white"/>
<path d="M149.115 46V26.632H154.731V46H149.115ZM151.923 23.932C150.891 23.932 150.051 23.632 149.403 23.032C148.755 22.432 148.431 21.688 148.431 20.8C148.431 19.912 148.755 19.168 149.403 18.568C150.051 17.968 150.891 17.668 151.923 17.668C152.955 17.668 153.795 17.956 154.443 18.532C155.091 19.084 155.415 19.804 155.415 20.692C155.415 21.628 155.091 22.408 154.443 23.032C153.819 23.632 152.979 23.932 151.923 23.932Z" fill="white"/>
<path d="M168.26 46.288C166.436 46.288 164.792 45.88 163.328 45.064C161.864 44.224 160.7 43.06 159.836 41.572C158.996 40.084 158.576 38.332 158.576 36.316C158.576 34.276 158.996 32.512 159.836 31.024C160.7 29.536 161.864 28.384 163.328 27.568C164.792 26.752 166.436 26.344 168.26 26.344C169.892 26.344 171.32 26.704 172.544 27.424C173.768 28.144 174.716 29.236 175.388 30.7C176.06 32.164 176.396 34.036 176.396 36.316C176.396 38.572 176.072 40.444 175.424 41.932C174.776 43.396 173.84 44.488 172.616 45.208C171.416 45.928 169.964 46.288 168.26 46.288ZM169.232 41.68C170.144 41.68 170.972 41.464 171.716 41.032C172.46 40.6 173.048 39.988 173.48 39.196C173.936 38.38 174.164 37.42 174.164 36.316C174.164 35.188 173.936 34.228 173.48 33.436C173.048 32.644 172.46 32.032 171.716 31.6C170.972 31.168 170.144 30.952 169.232 30.952C168.296 30.952 167.456 31.168 166.712 31.6C165.968 32.032 165.368 32.644 164.912 33.436C164.48 34.228 164.264 35.188 164.264 36.316C164.264 37.42 164.48 38.38 164.912 39.196C165.368 39.988 165.968 40.6 166.712 41.032C167.456 41.464 168.296 41.68 169.232 41.68ZM174.308 46V42.04L174.416 36.28L174.056 30.556V19.288H179.672V46H174.308Z" fill="white"/>
<path d="M194.481 46.288C192.273 46.288 190.329 45.856 188.649 44.992C186.993 44.128 185.709 42.952 184.797 41.464C183.885 39.952 183.429 38.236 183.429 36.316C183.429 34.372 183.873 32.656 184.761 31.168C185.673 29.656 186.909 28.48 188.469 27.64C190.029 26.776 191.793 26.344 193.761 26.344C195.657 26.344 197.361 26.752 198.873 27.568C200.409 28.36 201.621 29.512 202.509 31.024C203.397 32.512 203.841 34.3 203.841 36.388C203.841 36.604 203.829 36.856 203.805 37.144C203.781 37.408 203.757 37.66 203.733 37.9H188.001V34.624H200.781L198.621 35.596C198.621 34.588 198.417 33.712 198.009 32.968C197.601 32.224 197.037 31.648 196.317 31.24C195.597 30.808 194.757 30.592 193.797 30.592C192.837 30.592 191.985 30.808 191.241 31.24C190.521 31.648 189.957 32.236 189.549 33.004C189.141 33.748 188.937 34.636 188.937 35.668V36.532C188.937 37.588 189.165 38.524 189.621 39.34C190.101 40.132 190.761 40.744 191.601 41.176C192.465 41.584 193.473 41.788 194.625 41.788C195.657 41.788 196.557 41.632 197.325 41.32C198.117 41.008 198.837 40.54 199.485 39.916L202.473 43.156C201.585 44.164 200.469 44.944 199.125 45.496C197.781 46.024 196.233 46.288 194.481 46.288Z" fill="white"/>
<path d="M223.929 20.811C225.257 19.2834 226.934 18.4488 228.962 18.307C230.99 18.1652 232.767 18.7582 234.295 20.0861C235.823 21.414 236.657 23.0918 236.799 25.1195C236.941 27.1472 236.359 28.9345 235.053 30.4813C234.899 30.6584 234.742 30.7941 234.583 30.8885L226.492 36.5068C225.579 37.4231 224.479 37.9054 223.194 37.9538C221.908 38.0021 220.778 37.6029 219.804 36.7561C218.852 35.9286 218.301 34.8859 218.151 33.6281C218 32.3703 218.295 31.2269 219.033 30.198C219.389 29.3414 219.792 28.4088 220.241 27.4001C220.691 26.3915 221.273 25.2071 221.989 23.8472C222.705 22.4872 223.351 21.4751 223.929 20.811ZM211.264 39.0687C212.149 38.0503 213.265 37.5045 214.611 37.4311C215.958 37.3577 217.15 37.7526 218.187 38.6157C219.225 39.4788 219.782 40.6043 219.858 41.992C219.934 43.3798 219.549 44.5607 218.702 45.5348C217.798 46.5753 216.673 47.1322 215.326 47.2055C213.98 47.2789 212.788 46.884 211.75 46.0209C210.713 45.1578 210.156 44.0324 210.079 42.6446C210.003 41.2569 210.398 40.0649 211.264 39.0687Z" fill="white"/>
</svg>
