<svg width="211" height="66" viewBox="0 0 211 66" fill="none" xmlns="http://www.w3.org/2000/svg">
<path d="M0 15C0 6.71573 6.71573 0 15 0H196C204.284 0 211 6.71573 211 15V51C211 59.2843 204.284 66 196 66H15C6.71573 66 0 59.2843 0 51V15Z" fill="#150F0F"/>
<path d="M33.376 44.384C31.648 44.384 30.0373 44.1067 28.544 43.552C27.072 42.976 25.792 42.1653 24.704 41.12C23.616 40.0747 22.7627 38.848 22.144 37.44C21.5467 36.032 21.248 34.4853 21.248 32.8C21.248 31.1147 21.5467 29.568 22.144 28.16C22.7627 26.752 23.616 25.5253 24.704 24.48C25.8133 23.4347 27.104 22.6347 28.576 22.08C30.048 21.504 31.6587 21.216 33.408 21.216C35.3493 21.216 37.0987 21.5573 38.656 22.24C40.2347 22.9013 41.5573 23.8827 42.624 25.184L39.296 28.256C38.528 27.3813 37.6747 26.7307 36.736 26.304C35.7973 25.856 34.7733 25.632 33.664 25.632C32.6187 25.632 31.6587 25.8027 30.784 26.144C29.9093 26.4853 29.152 26.976 28.512 27.616C27.872 28.256 27.3707 29.0133 27.008 29.888C26.6667 30.7627 26.496 31.7333 26.496 32.8C26.496 33.8667 26.6667 34.8373 27.008 35.712C27.3707 36.5867 27.872 37.344 28.512 37.984C29.152 38.624 29.9093 39.1147 30.784 39.456C31.6587 39.7973 32.6187 39.968 33.664 39.968C34.7733 39.968 35.7973 39.7547 36.736 39.328C37.6747 38.88 38.528 38.208 39.296 37.312L42.624 40.384C41.5573 41.6853 40.2347 42.6773 38.656 43.36C37.0987 44.0427 35.3387 44.384 33.376 44.384Z" fill="white"/>
<path d="M56.2368 26.528C57.6021 26.528 58.8181 26.8053 59.8848 27.36C60.9728 27.8933 61.8261 28.7253 62.4448 29.856C63.0634 30.9653 63.3727 32.3947 63.3727 34.144V44H58.3808V34.912C58.3808 33.5253 58.0714 32.5013 57.4528 31.84C56.8554 31.1787 56.0021 30.848 54.8927 30.848C54.1034 30.848 53.3887 31.0187 52.7487 31.36C52.1301 31.68 51.6394 32.1813 51.2767 32.864C50.9354 33.5467 50.7648 34.4213 50.7648 35.488V44H45.7728V20.256H50.7648V31.552L49.6447 30.112C50.2634 28.96 51.1488 28.0747 52.3008 27.456C53.4528 26.8373 54.7648 26.528 56.2368 26.528Z" fill="white"/>
<path d="M78.4577 44V40.64L78.1377 39.904V33.888C78.1377 32.8213 77.8071 31.9893 77.1458 31.392C76.5058 30.7947 75.5138 30.496 74.1698 30.496C73.2524 30.496 72.3458 30.6453 71.4498 30.944C70.5751 31.2213 69.8284 31.6053 69.2097 32.096L67.4177 28.608C68.3564 27.9467 69.4871 27.4347 70.8098 27.072C72.1324 26.7093 73.4764 26.528 74.8418 26.528C77.4658 26.528 79.5031 27.1467 80.9538 28.384C82.4044 29.6213 83.1298 31.552 83.1298 34.176V44H78.4577ZM73.2097 44.256C71.8657 44.256 70.7138 44.032 69.7538 43.584C68.7938 43.1147 68.0578 42.4853 67.5458 41.696C67.0338 40.9067 66.7777 40.0213 66.7777 39.04C66.7777 38.016 67.0231 37.12 67.5137 36.352C68.0257 35.584 68.8257 34.9867 69.9137 34.56C71.0017 34.112 72.4204 33.888 74.1698 33.888H78.7458V36.8H74.7138C73.5404 36.8 72.7298 36.992 72.2818 37.376C71.8551 37.76 71.6418 38.24 71.6418 38.816C71.6418 39.456 71.8871 39.968 72.3777 40.352C72.8897 40.7147 73.5831 40.896 74.4577 40.896C75.2897 40.896 76.0364 40.704 76.6978 40.32C77.3591 39.9147 77.8391 39.328 78.1377 38.56L78.9057 40.864C78.5431 41.9733 77.8818 42.816 76.9218 43.392C75.9618 43.968 74.7244 44.256 73.2097 44.256Z" fill="white"/>
<path d="M87.6478 44V20.256H92.6397V44H87.6478Z" fill="white"/>
<path d="M105.817 44.256C103.854 44.256 102.126 43.872 100.633 43.104C99.1608 42.336 98.0194 41.2907 97.2087 39.968C96.3981 38.624 95.9928 37.0987 95.9928 35.392C95.9928 33.664 96.3874 32.1387 97.1768 30.816C97.9874 29.472 99.0861 28.4267 100.473 27.68C101.859 26.912 103.427 26.528 105.177 26.528C106.862 26.528 108.377 26.8907 109.721 27.616C111.086 28.32 112.163 29.344 112.953 30.688C113.742 32.0107 114.137 33.6 114.137 35.456C114.137 35.648 114.126 35.872 114.105 36.128C114.083 36.3627 114.062 36.5867 114.041 36.8H100.057V33.888H111.417L109.497 34.752C109.497 33.856 109.315 33.0773 108.953 32.416C108.59 31.7547 108.089 31.2427 107.449 30.88C106.809 30.496 106.062 30.304 105.209 30.304C104.355 30.304 103.598 30.496 102.937 30.88C102.297 31.2427 101.795 31.7653 101.433 32.448C101.07 33.1093 100.889 33.8987 100.889 34.816V35.584C100.889 36.5227 101.091 37.3547 101.497 38.08C101.923 38.784 102.51 39.328 103.257 39.712C104.025 40.0747 104.921 40.256 105.945 40.256C106.862 40.256 107.662 40.1173 108.345 39.84C109.049 39.5627 109.689 39.1467 110.265 38.592L112.921 41.472C112.131 42.368 111.139 43.0613 109.945 43.552C108.75 44.0213 107.374 44.256 105.817 44.256Z" fill="white"/>
<path d="M117.812 44V21.6H127.508C129.514 21.6 131.242 21.9307 132.692 22.592C134.143 23.232 135.263 24.16 136.052 25.376C136.842 26.592 137.236 28.0427 137.236 29.728C137.236 31.392 136.842 32.832 136.052 34.048C135.263 35.2427 134.143 36.16 132.692 36.8C131.242 37.44 129.514 37.76 127.508 37.76H120.692L122.996 35.488V44H117.812ZM132.052 44L126.452 35.872H131.988L137.652 44H132.052ZM122.996 36.064L120.692 33.632H127.22C128.82 33.632 130.015 33.2907 130.804 32.608C131.594 31.904 131.988 30.944 131.988 29.728C131.988 28.4907 131.594 27.5307 130.804 26.848C130.015 26.1653 128.82 25.824 127.22 25.824H120.692L122.996 23.36V36.064Z" fill="white"/>
<path d="M140.992 44V26.784H145.984V44H140.992ZM143.488 24.384C142.57 24.384 141.823 24.1173 141.247 23.584C140.671 23.0507 140.383 22.3893 140.383 21.6C140.383 20.8107 140.671 20.1493 141.247 19.616C141.823 19.0827 142.57 18.816 143.488 18.816C144.405 18.816 145.151 19.072 145.727 19.584C146.303 20.0747 146.592 20.7147 146.592 21.504C146.592 22.336 146.303 23.0293 145.727 23.584C145.173 24.1173 144.426 24.384 143.488 24.384Z" fill="white"/>
<path d="M158.008 44.256C156.387 44.256 154.926 43.8933 153.624 43.168C152.323 42.4213 151.289 41.3867 150.521 40.064C149.774 38.7413 149.4 37.184 149.4 35.392C149.4 33.5787 149.774 32.0107 150.521 30.688C151.289 29.3653 152.323 28.3413 153.624 27.616C154.926 26.8907 156.387 26.528 158.008 26.528C159.459 26.528 160.728 26.848 161.816 27.488C162.904 28.128 163.747 29.0987 164.344 30.4C164.942 31.7013 165.241 33.3653 165.241 35.392C165.241 37.3973 164.952 39.0613 164.376 40.384C163.8 41.6853 162.968 42.656 161.88 43.296C160.814 43.936 159.523 44.256 158.008 44.256ZM158.872 40.16C159.683 40.16 160.419 39.968 161.081 39.584C161.742 39.2 162.264 38.656 162.648 37.952C163.054 37.2267 163.257 36.3733 163.257 35.392C163.257 34.3893 163.054 33.536 162.648 32.832C162.264 32.128 161.742 31.584 161.081 31.2C160.419 30.816 159.683 30.624 158.872 30.624C158.04 30.624 157.294 30.816 156.633 31.2C155.971 31.584 155.438 32.128 155.033 32.832C154.649 33.536 154.456 34.3893 154.456 35.392C154.456 36.3733 154.649 37.2267 155.033 37.952C155.438 38.656 155.971 39.2 156.633 39.584C157.294 39.968 158.04 40.16 158.872 40.16ZM163.385 44V40.48L163.48 35.36L163.161 30.272V20.256H168.152V44H163.385Z" fill="white"/>
<path d="M181.317 44.256C179.354 44.256 177.626 43.872 176.133 43.104C174.661 42.336 173.519 41.2907 172.709 39.968C171.898 38.624 171.493 37.0987 171.493 35.392C171.493 33.664 171.887 32.1387 172.677 30.816C173.487 29.472 174.586 28.4267 175.973 27.68C177.359 26.912 178.927 26.528 180.677 26.528C182.362 26.528 183.877 26.8907 185.221 27.616C186.586 28.32 187.663 29.344 188.453 30.688C189.242 32.0107 189.637 33.6 189.637 35.456C189.637 35.648 189.626 35.872 189.605 36.128C189.583 36.3627 189.562 36.5867 189.541 36.8H175.557V33.888H186.917L184.997 34.752C184.997 33.856 184.815 33.0773 184.453 32.416C184.09 31.7547 183.589 31.2427 182.949 30.88C182.309 30.496 181.562 30.304 180.709 30.304C179.855 30.304 179.098 30.496 178.437 30.88C177.797 31.2427 177.295 31.7653 176.933 32.448C176.57 33.1093 176.389 33.8987 176.389 34.816V35.584C176.389 36.5227 176.591 37.3547 176.997 38.08C177.423 38.784 178.01 39.328 178.757 39.712C179.525 40.0747 180.421 40.256 181.445 40.256C182.362 40.256 183.162 40.1173 183.845 39.84C184.549 39.5627 185.189 39.1467 185.765 38.592L188.421 41.472C187.631 42.368 186.639 43.0613 185.445 43.552C184.25 44.0213 182.874 44.256 181.317 44.256Z" fill="white"/>
</svg>
